# xmcd
#
# Track frame offsets: 
#        150
#        16462
#        29624
#        45411
#        62923
#        79232
#        97119
#        116357
#        132894
#        148306
#        160568
#        179130
#        194242
#        209579
#        228742
#        242130
#        256794
#        271681
#        283120
#
# Disc length: 3963 seconds
#
# Revision: 4
# Processed by: cddbd v1.5.2PL0 Copyright (c) Steve Scherf et al.
# Submitted via: ExactAudioCopyFreeDBPlugin 1.0
#
DISCID=240f7913
DTITLE=Various Artist - Promo Only Country Radio December 2006
DYEAR=2007
DGENRE=Country
TTITLE0=Blake Shelton - Don't Make Me (Single Version)
TTITLE1=George Strait - It Just Comes Natural
TTITLE2=Gary Allan - A Feelin' Like That
TTITLE3=Gretchen Wilson feat. John Rich - Come To Bed
TTITLE4=Josh Gracin - I Keep Coming Back
TTITLE5=Rushlow Harris - Bagpipes Cryin'
TTITLE6=Jason M. Carroll - Alyssa Lies
TTITLE7=Blue County - I Get To
TTITLE8=Mark Wills - Take It All Out On Me
TTITLE9=Donovan Chapman - House Like That
TTITLE10=Pat Green - Dixie Lullaby
TTITLE11=Ronnie Milsap with Jypsi - You Don't Know My Love
TTITLE12=Amy Dalley - Everbody's Got A Vice
TTITLE13=Darryl Worley - I Just Came Back (From A War) (Radio Edit)
TTITLE14=Danielle Peck - Isn't That Everything
TTITLE15=Little Texas - Your Woman
TTITLE16=Billy Ray Cyrus - I Want My Mullet Back
TTITLE17=The Doo-Wah Riders - Dear Beer
TTITLE18=Levi - Dancing In My Mind
EXTD=Corrections by Larry@YourTexasMusic.com
EXTT0=
EXTT1=
EXTT2=
EXTT3=
EXTT4=
EXTT5=
EXTT6=
EXTT7=
EXTT8=
EXTT9=
EXTT10=
EXTT11=
EXTT12=
EXTT13=
EXTT14=
EXTT15=
EXTT16=
EXTT17=
EXTT18=
PLAYORDER=
